<?xml version="1.0" encoding="UTF-8"?>
<svg width="40px" height="33px" viewBox="0 0 40 33" version="1.1" xmlns="http://www.w3.org/2000/svg" xmlns:xlink="http://www.w3.org/1999/xlink">
    <title>Group 10</title>
    <g id="UI" stroke="none" stroke-width="1" fill="none" fill-rule="evenodd">
        <g id="Gestion-locative" transform="translate(-681.000000, -3312.000000)">
            <g id="User-4-Copy" transform="translate(635.000000, 3262.000000)">
                <g id="Group-10" transform="translate(48.000000, 52.000000)">
                    <path d="M31.3858696,-1 C32.9038164,-1 34.2794653,-0.36756946 35.2746257,0.659641692 C36.2584955,1.67519852 36.8695652,3.07752157 36.8695652,4.6281001 L36.8695652,4.6281001 L36.8695652,20.0551004 C36.8695652,21.6056789 36.2584955,23.008002 35.2746257,24.0235588 C34.2794653,25.05077 32.9038164,25.6832005 31.3858696,25.6832005 L31.3858696,25.6832005 L8.51510322,25.6832005 L5.82066853,28.4644137 C5.21640704,29.0881364 4.50733184,29.4514963 3.78252545,29.6003798 C2.99228296,29.7627046 2.17922005,29.6681661 1.45188137,29.357217 C0.731229634,29.0491268 0.09599234,28.5289197 -0.347724948,27.8433758 C-0.75206765,27.2186656 -1,26.4557997 -1,25.5872227 L-1,25.5872227 L-1,4.6281001 C-1,3.07752157 -0.388930267,1.67519852 0.594939489,0.659641692 C1.59009994,-0.36756946 2.96574882,-1 4.48369565,-1 L4.48369565,-1 Z" id="Fill-949-Copy" stroke="#FFFFFF" stroke-width="2" fill="#FFBE9C"></path>
                    <path d="M10.4619565,9.25620019 C10.4619565,8.40462977 11.1315217,7.71350016 11.9565217,7.71350016 L16.4402174,7.71350016 C17.2652174,7.71350016 17.9347826,8.40462977 17.9347826,9.25620019 C17.9347826,10.1077706 17.2652174,10.7989002 16.4402174,10.7989002 L11.9565217,10.7989002 C11.1315217,10.7989002 10.4619565,10.1077706 10.4619565,9.25620019 Z" id="Path" fill="#FFFFFF"></path>
                    <path d="M10.4619565,15.4270003 C10.4619565,14.5754299 11.1315217,13.8843003 11.9565217,13.8843003 L23.9130435,13.8843003 C24.7380435,13.8843003 25.4076087,14.5754299 25.4076087,15.4270003 C25.4076087,16.2785707 24.7380435,16.9697004 23.9130435,16.9697004 L11.9565217,16.9697004 C11.1315217,16.9697004 10.4619565,16.2785707 10.4619565,15.4270003 L10.4619565,15.4270003 Z" id="Path" fill="#FFFFFF"></path>
                </g>
            </g>
        </g>
    </g>
</svg>