<?xml version="1.0" encoding="UTF-8"?>
<svg width="41px" height="40px" viewBox="0 0 41 40" version="1.1" xmlns="http://www.w3.org/2000/svg" xmlns:xlink="http://www.w3.org/1999/xlink">
    <title>Group 9 2</title>
    <g id="UI" stroke="none" stroke-width="1" fill="none" fill-rule="evenodd">
        <g id="Gestion-locative" transform="translate(-1164.000000, -3310.000000)">
            <g id="User-4-Copy-3" transform="translate(1118.000000, 3262.000000)">
                <g id="Group-9" transform="translate(49.000000, 50.000000)">
                    <path d="M18.0181073,-1 C23.2232974,-1 27.9356691,1.1031369 31.3468391,4.50293635 C34.7592196,7.90394224 36.8695652,12.6024306 36.8695652,17.7919531 C36.8695652,22.9814755 34.7592196,27.6799639 31.3468391,31.0809698 C27.9356691,34.4807693 23.2232974,36.5839062 18.0181073,36.5839062 C14.9064474,36.5839062 11.9669242,35.8304271 9.37677754,34.4980023 L9.37677754,34.4980023 L4.92799694,36.3984774 C4.08408089,36.7587329 3.23799772,36.8250843 2.46057224,36.6757987 C1.61547763,36.5135189 0.849431293,36.0931912 0.254911045,35.5006527 C-0.340367751,34.9073582 -0.76235772,34.1427656 -0.925375811,33.2994764 C-1.07548447,32.5229675 -1.00887392,31.6778518 -0.646516499,30.8346617 L-0.646516499,30.8346617 L1.25854513,26.4048253 C-0.0777896272,23.8230082 -0.833350657,20.8932075 -0.833350657,17.7919531 C-0.833350657,12.6024306 1.27699499,7.90394224 4.68937548,4.50293635 C8.10054549,1.1031369 12.8129171,-1 18.0181073,-1 Z" id="Fill-951" stroke="#FFFFFF" stroke-width="2" fill="#2C2763"></path>
                    <path d="M9.90380822,14.5570525 C9.90380822,13.66422 10.6308494,12.9396022 11.526668,12.9396022 L16.3952475,12.9396022 C17.2910661,12.9396022 18.0181073,13.66422 18.0181073,14.5570525 C18.0181073,15.4498851 17.2910661,16.1745028 16.3952475,16.1745028 L11.526668,16.1745028 C10.6308494,16.1745028 9.90380822,15.4498851 9.90380822,14.5570525 Z" id="Path" fill="#FFFFFF"></path>
                    <path d="M9.90380822,21.0268536 C9.90380822,20.1340211 10.6308494,19.4094034 11.526668,19.4094034 L24.5095465,19.4094034 C25.4053651,19.4094034 26.1324063,20.1340211 26.1324063,21.0268536 C26.1324063,21.9196862 25.4053651,22.6443039 24.5095465,22.6443039 L11.526668,22.6443039 C10.6308494,22.6443039 9.90380822,21.9196862 9.90380822,21.0268536 L9.90380822,21.0268536 Z" id="Path" fill="#FFFFFF"></path>
                </g>
            </g>
        </g>
    </g>
</svg>