<?xml version="1.0" encoding="utf-8"?>
<!-- Generator: Adobe Illustrator 24.0.3, SVG Export Plug-In . SVG Version: 6.00 Build 0)  -->
<svg version="1.1" id="Calque_1" xmlns="http://www.w3.org/2000/svg" xmlns:xlink="http://www.w3.org/1999/xlink" x="0px" y="0px"
	 viewBox="0 0 214 128" style="enable-background:new 0 0 214 128;" xml:space="preserve">
<style type="text/css">
	.st0{fill-rule:evenodd;clip-rule:evenodd;fill:#FFBE9C;}
	.st1{fill-rule:evenodd;clip-rule:evenodd;fill:#2C2763;}
	.st2{fill-rule:evenodd;clip-rule:evenodd;fill:#FF6456;}
	.st3{fill-rule:evenodd;clip-rule:evenodd;fill:#FFFFFF;}
</style>
<title>Group 19 Copy</title>
<g id="UI">
	<g id="Syndic" transform="translate(-405.000000, -1879.000000)">
		<g id="Group-36-Copy" transform="translate(405.000000, 1879.000000)">
			<polygon id="Fill-1" class="st0" points="65.8,22.6 65.8,127.9 122,127.9 122,22.6 94.3,3.4 			"/>
			<polygon id="Fill-2" class="st1" points="122,127.9 149.6,127.9 149.6,22.6 122,22.6 			"/>
			<polygon id="Fill-3" class="st2" points="93.9,0.1 60.8,23.4 65.8,23.9 94.1,4 122,24.4 127.4,24.3 			"/>
			<polygon id="Fill-4" class="st2" points="127.4,24.3 153.2,23.9 125,1.1 93.9,0.1 			"/>
			<g id="Group-35" transform="translate(17.250338, 43.002255)">
				<path id="Fill-5" class="st3" d="M59.7-16.1c-3,0-5.4,2.6-5.4,5.8V2.8h10.8v-13.1C65.1-13.5,62.7-16.1,59.7-16.1"/>
				<path id="Fill-7" class="st0" d="M59.8-16.1c-0.2,0-0.4,0-0.6,0V2.8h0.9v-18.9C60.1-16.1,60-16.1,59.8-16.1"/>
				<polygon id="Fill-9" class="st0" points="54.3,-9.5 65.1,-9.5 65.1,-10.3 54.3,-10.3 				"/>
				<path id="Fill-11" class="st3" d="M75.3-16.1c-3,0-5.4,2.6-5.4,5.8V2.8h10.8v-13.1C80.7-13.5,78.3-16.1,75.3-16.1"/>
				<path id="Fill-12" class="st0" d="M75.5-16.1c-0.2,0-0.4,0-0.6,0V2.8h0.9v-18.9C75.7-16.1,75.6-16.1,75.5-16.1"/>
				<polygon id="Fill-13" class="st0" points="70,-9.5 80.7,-9.5 80.7,-10.3 70,-10.3 				"/>
				<path id="Fill-14" class="st3" d="M91-16.1c-3,0-5.4,2.6-5.4,5.8V2.8h10.8v-13.1C96.3-13.5,93.9-16.1,91-16.1"/>
				<path id="Fill-15" class="st0" d="M91.1-16.1c-0.2,0-0.4,0-0.6,0V2.8h0.9v-18.9C91.3-16.1,91.2-16.1,91.1-16.1"/>
				<polygon id="Fill-16" class="st0" points="85.6,-9.5 96.3,-9.5 96.3,-10.3 85.6,-10.3 				"/>
				<path id="Fill-17" class="st3" d="M61,16.2c-3,0-5.4,2.6-5.4,5.8v13.1h10.8V22C66.4,18.8,64,16.2,61,16.2"/>
				<path id="Fill-18" class="st0" d="M61.2,16.2c-0.2,0-0.4,0-0.6,0v18.9h0.9V16.2C61.4,16.2,61.3,16.2,61.2,16.2"/>
				<polygon id="Fill-19" class="st0" points="55.6,22.8 66.4,22.8 66.4,22 55.6,22 				"/>
				<path id="Fill-20" class="st3" d="M76.6,16.2c-3,0-5.4,2.6-5.4,5.8v13.1H82V22C82,18.8,79.6,16.2,76.6,16.2"/>
				<path id="Fill-21" class="st0" d="M76.8,16.2c-0.2,0-0.4,0-0.6,0v18.9h0.9V16.2C77,16.2,76.9,16.2,76.8,16.2"/>
				<polygon id="Fill-22" class="st0" points="71.3,22.8 82,22.8 82,22 71.3,22 				"/>
				<path id="Fill-23" class="st3" d="M92.3,16.2c-3,0-5.4,2.6-5.4,5.8v13.1h10.8V22C97.6,18.8,95.2,16.2,92.3,16.2"/>
				<path id="Fill-24" class="st0" d="M92.4,16.2c-0.2,0-0.4,0-0.6,0v18.9h0.9V16.2C92.6,16.2,92.5,16.2,92.4,16.2"/>
				<polygon id="Fill-25" class="st0" points="86.9,22.8 97.6,22.8 97.6,22 86.9,22 				"/>
				<path id="Fill-26" class="st3" d="M61.2,51.1c-3,0-5.4,2.6-5.4,5.8v13.1h10.8V56.9C66.6,53.7,64.2,51.1,61.2,51.1"/>
				<path id="Fill-27" class="st0" d="M61.4,51.1c-0.2,0-0.4,0-0.6,0v18.9h0.9V51.1C61.6,51.1,61.5,51.1,61.4,51.1"/>
				<polygon id="Fill-28" class="st0" points="55.9,57.7 66.6,57.7 66.6,56.9 55.9,56.9 				"/>
				<path id="Fill-29" class="st3" d="M76.9,51.1c-3,0-5.4,2.6-5.4,5.8v13.1h10.8V56.9C82.2,53.7,79.8,51.1,76.9,51.1"/>
				<path id="Fill-30" class="st0" d="M77,51.1c-0.2,0-0.4,0-0.6,0v18.9h0.9V51.1C77.2,51.1,77.1,51.1,77,51.1"/>
				<polygon id="Fill-31" class="st0" points="71.5,57.7 82.2,57.7 82.2,56.9 71.5,56.9 				"/>
				<path id="Fill-32" class="st3" d="M92.5,51.1c-3,0-5.4,2.6-5.4,5.8v13.1h10.8V56.9C97.9,53.7,95.5,51.1,92.5,51.1"/>
				<path id="Fill-33" class="st0" d="M92.6,51.1c-0.2,0-0.4,0-0.6,0v18.9h0.9V51.1C92.8,51.1,92.7,51.1,92.6,51.1"/>
				<polygon id="Fill-34" class="st0" points="87.1,57.7 97.9,57.7 97.9,56.9 87.1,56.9 				"/>
			</g>
		</g>
	</g>
</g>
</svg>
