<?xml version="1.0" encoding="UTF-8"?>
<svg width="214px" height="128px" viewBox="0 0 214 128" version="1.1" xmlns="http://www.w3.org/2000/svg" xmlns:xlink="http://www.w3.org/1999/xlink">
    <title>Group 19 Copy</title>
    <g id="UI" stroke="none" stroke-width="1" fill="none" fill-rule="evenodd">
        <g id="Syndic" transform="translate(-359.000000, -1933.000000)">
            <g id="Group-19-Copy" transform="translate(359.000000, 1933.000000)">
                <polygon id="Fill-1" fill="#FFBE9C" points="7.76314805 47.3892738 7.76314805 128 49.4899007 128 91.2166534 128 91.2166534 47.3892738 49.4899007 7.32829946"></polygon>
                <polygon id="Fill-2" fill="#2C2763" points="91.2163931 127.999825 213 127.999825 213 47.3890991 91.2163931 47.3890991"></polygon>
                <path d="M49.4899007,2.74890923 L169.031599,2.74890923 L213,47.3891428" id="Path-2" stroke="#2C2763" stroke-width="1.976" stroke-dasharray="3.951999950408936"></path>
                <polygon id="Fill-3" fill="#FF6456" points="49.4900309 0 0 47.3891428 7.76327819 47.3891428 49.4900309 7.32816842 91.2163497 47.3891428 98.9796279 47.3891428"></polygon>
                <polygon id="Fill-5" fill="#FFFFFF" points="109.535752 106.259054 124.576886 106.259054 124.576886 69.129434 109.535752 69.129434"></polygon>
                <polygon id="Fill-6" fill="#2C2763" points="115.97811 106.259054 118.134528 106.259054 118.134528 69.129434 115.97811 69.129434"></polygon>
                <polygon id="Fill-7" fill="#2C2763" points="109.535752 80.002659 124.576886 80.002659 124.576886 78.0479857 109.535752 78.0479857"></polygon>
                <polygon id="Fill-8" fill="#FFFFFF" points="146.196592 106.259054 161.237727 106.259054 161.237727 69.129434 146.196592 69.129434"></polygon>
                <polygon id="Fill-9" fill="#2C2763" points="152.638517 106.259054 154.795368 106.259054 154.795368 69.129434 152.638517 69.129434"></polygon>
                <polygon id="Fill-10" fill="#2C2763" points="146.196592 80.002659 161.237727 80.002659 161.237727 78.0479857 146.196592 78.0479857"></polygon>
                <polygon id="Fill-11" fill="#FFFFFF" points="182.857433 106.259054 197.898567 106.259054 197.898567 69.129434 182.857433 69.129434"></polygon>
                <polygon id="Fill-12" fill="#2C2763" points="189.300225 106.259054 191.456643 106.259054 191.456643 69.129434 189.300225 69.129434"></polygon>
                <polygon id="Fill-13" fill="#2C2763" points="182.857433 80.002659 197.898567 80.002659 197.898567 78.0479857 182.857433 78.0479857"></polygon>
                <g id="Group-18" transform="translate(36.499944, 25.294596)" fill="#FFFFFF">
                    <path d="M19.801613,7.87692308 C19.801613,12.2270233 16.2996595,15.7538462 11.9787695,15.7538462 C7.65853512,15.7538462 4.15592593,12.2270233 4.15592593,7.87692308 C4.15592593,3.52682282 7.65853512,0 11.9787695,0 C16.2996595,0 19.801613,3.52682282 19.801613,7.87692308" id="Fill-14"></path>
                    <polygon id="Fill-16" points="0 102.705229 22.4278747 102.705229 22.4278747 54.9522335 0 54.9522335"></polygon>
                </g>
            </g>
        </g>
    </g>
</svg>