<?xml version="1.0" encoding="UTF-8"?>
<svg width="30px" height="21px" viewBox="0 0 30 21" version="1.1" xmlns="http://www.w3.org/2000/svg" xmlns:xlink="http://www.w3.org/1999/xlink">
    <title>“ copy 2</title>
    <g id="UI" stroke="none" stroke-width="1" fill="none" fill-rule="evenodd">
        <g id="HOME-OK" transform="translate(-1025.000000, -1426.000000)" fill="#FF6456" fill-rule="nonzero">
            <g id="Group-14" transform="translate(100.000000, 1426.480000)">
                <g id="2" transform="translate(81.000000, 0.000000)">
                    <g id="User-5" transform="translate(69.537662, 0.000000)">
                        <path d="M782.232,19.776 L785.176,15.488 C783.96,14.848 782.296,13.376 782.04,11.904 L782.488,11.904 C785.752,11.904 787.928,9.28 787.928,6.208 C787.928,2.56 784.92,0 781.4,0 C776.984,0 775,4.16 775,7.616 C775,12.16 778.328,18.24 782.232,19.776 Z M798.104,19.776 L801.048,15.488 C799.832,14.848 798.168,13.376 797.912,11.904 L798.36,11.904 C801.624,11.904 803.8,9.28 803.8,6.208 C803.8,2.56 800.792,0 797.272,0 C792.856,0 790.872,4.16 790.872,7.616 C790.872,12.16 794.2,18.24 798.104,19.776 Z" id="“-copy-2"></path>
                    </g>
                </g>
            </g>
        </g>
    </g>
</svg>